<?xml version="1.0" standalone="no"?>
<!DOCTYPE svg PUBLIC "-//W3C//DTD SVG 20010904//EN"
 "http://www.w3.org/TR/2001/REC-SVG-20010904/DTD/svg10.dtd">
<svg version="1.0" xmlns="http://www.w3.org/2000/svg"
 width="700.000000pt" height="700.000000pt" viewBox="0 0 700.000000 700.000000"
 preserveAspectRatio="xMidYMid meet">
<metadata>
Created by potrace 1.11, written by Peter Selinger 2001-2013
</metadata>
<g transform="translate(0.000000,700.000000) scale(0.100000,-0.100000)"
fill="#000000" stroke="none">
<path d="M2563 6410 c-76 -16 -138 -59 -181 -128 -20 -31 -168 -463 -437
-1269 l-407 -1223 -502 0 c-568 0 -559 1 -645 -76 -69 -62 -95 -120 -95 -214
0 -94 26 -152 95 -214 87 -79 61 -76 778 -76 509 1 644 4 674 14 58 21 114 64
146 113 21 31 123 325 333 954 l303 909 741 -2224 c561 -1682 749 -2235 773
-2269 57 -84 176 -136 275 -121 95 15 183 80 223 164 11 25 201 588 422 1252
l403 1208 502 0 c568 0 559 -1 645 76 69 62 95 120 95 214 0 94 -26 152 -95
214 -87 78 -62 76 -773 76 -382 0 -645 -4 -666 -10 -59 -16 -128 -67 -160
-116 -19 -31 -133 -357 -332 -955 l-303 -909 -741 2223 c-495 1484 -750 2237
-769 2265 -63 96 -186 146 -302 122z"/>
</g>
</svg>
